<svg xmlns="http://www.w3.org/2000/svg" width="1024" height="1024" viewBox="0 0 1024 1024">
  <defs>
    <style>
      .a {
        fill: #1d1d1b;
      }
    </style>
  </defs>
  <title>Denrim_hi_centerZeichenfläche 1 Kopie 8</title>
  <g>
    <ellipse class="a" cx="500.49036" cy="432.51781" rx="38.29028" ry="38.26584"/>
    <path class="a" d="M840,0H183A182.99984,182.99984,0,0,0,0,183V840a182.99984,182.99984,0,0,0,183,183H840a182.99984,182.99984,0,0,0,183-183V183A182.99984,182.99984,0,0,0,840,0ZM360.64844,720.34357A103.1844,103.1844,0,0,1,257.43115,617.19214H360.64844Zm0-141.4173H174.19189c0-102.91168,83.47949-186.33807,186.45654-186.33807Zm41.05371,37.70032H506.05078A104.31574,104.31574,0,0,1,401.70215,720.90906ZM765.19189,968.23975H412.25684c0-194.79712,158.01465-352.71136,352.93506-352.71136ZM402.26807,578.92627V216.23254c.06494,0,.12891.00244.19434.00244,4.35449-99.05121,86.07471-178.02185,186.26172-178.02185V160.24707a186.65664,186.65664,0,0,1,51.6084-7.23633v152.1604c76.49609,66.49554,124.85938,164.47864,124.85938,273.75513Z"/>
  </g>
</svg>
