<svg xmlns="http://www.w3.org/2000/svg" width="1024" height="1024" viewBox="0 0 1024 1024">
  <defs>
    <style>
      .a {
        fill: none;
      }
    </style>
  </defs>
  <title>Denrim_hi_centerZeichenfläche 1 Kopie 4</title>
  <g>
    <rect class="a" y="984" width="39" height="39"/>
    <rect class="a" x="985" width="39" height="39"/>
  </g>
  <g>
    <g>
      <path d="M765.19185,615.52841c-194.92053,0-352.93521,157.91425-352.93521,352.71132H765.19185Z"/>
      <path d="M360.64819,392.58823c-102.97688,0-186.45634,83.42639-186.45634,186.33806H360.64819Z"/>
      <path d="M257.4313,617.19214A103.1842,103.1842,0,0,0,360.64819,720.34355V617.19214Z"/>
      <path d="M640.3327,305.17119V153.01073a186.65516,186.65516,0,0,0-51.60845,7.23638V38.21318c-100.18728,0-181.90743,78.97064-186.26206,178.02183-.065,0-.12925-.00244-.19428-.00244V578.92629H765.19185C765.19185,469.6498,716.82844,371.66667,640.3327,305.17119ZM500.49044,470.78367a38.26586,38.26586,0,1,1,38.29014-38.26585A38.27795,38.27795,0,0,1,500.49044,470.78367Z"/>
    </g>
    <path d="M765.19185,615.52841c-194.92053,0-352.93521,157.91425-352.93521,352.71132H765.19185Z"/>
    <path d="M360.64819,392.58823c-102.97688,0-186.45634,83.42639-186.45634,186.33806H360.64819Z"/>
    <path d="M257.4313,617.19214A103.1842,103.1842,0,0,0,360.64819,720.34355V617.19214Z"/>
    <path d="M640.3327,305.17119V153.01073a186.65516,186.65516,0,0,0-51.60845,7.23638V38.21318c-100.18728,0-181.90743,78.97064-186.26206,178.02183-.065,0-.12925-.00244-.19428-.00244V578.92629H765.19185C765.19185,469.6498,716.82844,371.66667,640.3327,305.17119ZM500.49044,470.78367a38.26586,38.26586,0,1,1,38.29014-38.26585A38.27795,38.27795,0,0,1,500.49044,470.78367Z"/>
    <path d="M401.702,720.90909A104.31564,104.31564,0,0,0,506.05069,616.6266H401.702Z"/>
  </g>
</svg>
